# xmcd CD database file
#
# Track frame offsets:
#	150
#	14415
#	32187
#	42715
#	56314
#	78045
#	97230
#	109442
#	124182
#	149245
#	162357
#	176602
#	190637
#	205365
#
# Disc length: 2910 seconds
#
# Revision: 0
# Processed by: cddbd v1.5.2PL0 Copyright (c) Steve Scherf et al.
# Submitted via: CDex 1.70beta2
#
DISCID=ce0b5c0e
DTITLE=Jazz Masters - Jazz Trumpet
DYEAR=1900
DGENRE=Jazz
TTITLE0=Night in Tunisia - Dizzy
TTITLE1=Mahogany Hall Stomp - Louis
TTITLE2=Fat Girl - Fats
TTITLE3=Midnight at Mintons - Howard
TTITLE4=I can't Get Started - Bunny
TTITLE5=Black and Blue - Louis
TTITLE6=St Louis Blues - Louis
TTITLE7=Salt Peanut - Dizzy
TTITLE8=Double Talks - Fatstwih Time - Roy
TTITLE9=Twilight Time - Roy
TTITLE10=Manteca - Dizzy
TTITLE11=Dorothy - Howard
TTITLE12=You Mde Me Love You - Harry
TTITLE13=Little Willie Leaps - Miles
EXTD=
EXTT0=
EXTT1=
EXTT2=
EXTT3=
EXTT4=
EXTT5=
EXTT6=
EXTT7=
EXTT8=
EXTT9=
EXTT10=
EXTT11=
EXTT12=
EXTT13=
PLAYORDER=
